<mxfile host="Electron" agent="Mozilla/5.0 (Windows NT 10.0; Win64; x64) AppleWebKit/537.36 (KHTML, like Gecko) draw.io/24.7.17 Chrome/128.0.6613.36 Electron/32.0.1 Safari/537.36" version="24.7.17">
  <diagram name="Страница — 1" id="sSC-xbCi71LBy9KAgF5f">
    <mxGraphModel dx="1036" dy="1441" grid="1" gridSize="10" guides="1" tooltips="1" connect="1" arrows="1" fold="1" page="1" pageScale="1" pageWidth="1169" pageHeight="827" math="0" shadow="0">
      <root>
        <mxCell id="0" />
        <mxCell id="1" parent="0" />
        <mxCell id="aHM809MoDFuFs7wAWHGj-8" value="" style="rounded=1;whiteSpace=wrap;html=1;direction=south;fillColor=#E6E6E6;" parent="1" vertex="1">
          <mxGeometry x="520" y="40" width="120" height="240" as="geometry" />
        </mxCell>
        <mxCell id="oT0RSAguvayIHpw8Xgz2-23" value="&lt;span style=&quot;color: rgba(0, 0, 0, 0); font-family: monospace; font-size: 0px; white-space: nowrap;&quot;&gt;%3CmxGraphModel%3E%3Croot%3E%3CmxCell%20id%3D%220%22%2F%3E%3CmxCell%20id%3D%221%22%20parent%3D%220%22%2F%3E%3CmxCell%20id%3D%222%22%20value%3D%22%26lt%3Bspan%20style%3D%26quot%3Bfont-size%3A%2010px%3B%26quot%3B%26gt%3B%D0%98%D0%BD%D1%84%D0%BE%D1%80%D0%BC%D0%B0%D1%86%D0%B8%D1%8F%26lt%3B%2Fspan%26gt%3B%22%20style%3D%22rounded%3D1%3BwhiteSpace%3Dwrap%3Bhtml%3D1%3Balign%3Dleft%3B%22%20vertex%3D%221%22%20parent%3D%221%22%3E%3CmxGeometry%20x%3D%22130%22%20y%3D%22145%22%20width%3D%22100%22%20height%3D%2213.5%22%20as%3D%22geometry%22%2F%3E%3C%2FmxCell%3E%3C%2Froot%3E%3C%2FmxGraphModel%3E&lt;/span&gt;" style="rounded=1;whiteSpace=wrap;html=1;align=left;" vertex="1" parent="1">
          <mxGeometry x="530" y="80" width="100" height="13.5" as="geometry" />
        </mxCell>
        <mxCell id="oT0RSAguvayIHpw8Xgz2-11" value="" style="rounded=1;whiteSpace=wrap;html=1;direction=south;" vertex="1" parent="1">
          <mxGeometry x="520" y="120" width="120" height="160" as="geometry" />
        </mxCell>
        <mxCell id="aHM809MoDFuFs7wAWHGj-54" value="" style="rounded=1;whiteSpace=wrap;html=1;direction=south;" parent="1" vertex="1">
          <mxGeometry x="120" y="40" width="120" height="240" as="geometry" />
        </mxCell>
        <mxCell id="aHM809MoDFuFs7wAWHGj-104" style="edgeStyle=orthogonalEdgeStyle;rounded=0;orthogonalLoop=1;jettySize=auto;html=1;exitX=0.5;exitY=1;exitDx=0;exitDy=0;entryX=0.5;entryY=1;entryDx=0;entryDy=0;" parent="1" source="aHM809MoDFuFs7wAWHGj-97" target="aHM809MoDFuFs7wAWHGj-7" edge="1">
          <mxGeometry relative="1" as="geometry">
            <Array as="points">
              <mxPoint x="155" y="297" />
              <mxPoint x="280" y="297" />
              <mxPoint x="280" y="160" />
            </Array>
          </mxGeometry>
        </mxCell>
        <mxCell id="aHM809MoDFuFs7wAWHGj-97" value="" style="rounded=1;whiteSpace=wrap;html=1;" parent="1" vertex="1">
          <mxGeometry x="145" y="257" width="20" height="20" as="geometry" />
        </mxCell>
        <mxCell id="aHM809MoDFuFs7wAWHGj-2" value="" style="sketch=0;pointerEvents=1;shadow=0;dashed=0;html=1;labelPosition=center;verticalLabelPosition=bottom;verticalAlign=top;outlineConnect=0;align=center;shape=mxgraph.office.concepts.home;fillColor=#00CC00;strokeColor=#006600;" parent="1" vertex="1">
          <mxGeometry x="130" y="262" width="10" height="10" as="geometry" />
        </mxCell>
        <mxCell id="aHM809MoDFuFs7wAWHGj-3" value="" style="sketch=0;pointerEvents=1;shadow=0;dashed=0;html=1;strokeColor=none;fillColor=#505050;labelPosition=center;verticalLabelPosition=bottom;verticalAlign=top;outlineConnect=0;align=center;shape=mxgraph.office.concepts.search;" parent="1" vertex="1">
          <mxGeometry x="150" y="262" width="10" height="10" as="geometry" />
        </mxCell>
        <mxCell id="aHM809MoDFuFs7wAWHGj-4" value="" style="sketch=0;pointerEvents=1;shadow=0;dashed=0;html=1;labelPosition=center;verticalLabelPosition=bottom;verticalAlign=top;outlineConnect=0;align=center;shape=mxgraph.office.users.user;" parent="1" vertex="1">
          <mxGeometry x="220" y="262" width="10" height="10" as="geometry" />
        </mxCell>
        <mxCell id="aHM809MoDFuFs7wAWHGj-5" value="" style="verticalLabelPosition=bottom;verticalAlign=top;html=1;shape=mxgraph.basic.heart" parent="1" vertex="1">
          <mxGeometry x="175" y="262" width="10" height="10" as="geometry" />
        </mxCell>
        <mxCell id="aHM809MoDFuFs7wAWHGj-6" value="" style="whiteSpace=wrap;html=1;shape=mxgraph.basic.oval_callout;perimeterSpacing=0;" parent="1" vertex="1">
          <mxGeometry x="200" y="262" width="10" height="10" as="geometry" />
        </mxCell>
        <mxCell id="aHM809MoDFuFs7wAWHGj-7" value="" style="rounded=1;whiteSpace=wrap;html=1;direction=south;" parent="1" vertex="1">
          <mxGeometry x="320" y="40" width="120" height="240" as="geometry" />
        </mxCell>
        <mxCell id="aHM809MoDFuFs7wAWHGj-10" value="" style="rounded=1;whiteSpace=wrap;html=1;direction=south;" parent="1" vertex="1">
          <mxGeometry x="320" y="360" width="120" height="240" as="geometry" />
        </mxCell>
        <mxCell id="aHM809MoDFuFs7wAWHGj-11" value="" style="rounded=1;whiteSpace=wrap;html=1;direction=south;" parent="1" vertex="1">
          <mxGeometry x="720" y="40" width="120" height="240" as="geometry" />
        </mxCell>
        <mxCell id="aHM809MoDFuFs7wAWHGj-21" value="&lt;pre style=&quot;&quot;&gt;&lt;font style=&quot;font-size: 6px;&quot; face=&quot;Helvetica&quot; color=&quot;#7a7a7a&quot;&gt;Помощь &lt;/font&gt;&lt;/pre&gt;" style="rounded=1;whiteSpace=wrap;html=1;strokeWidth=1;align=left;" parent="1" vertex="1">
          <mxGeometry x="130" y="60" width="50" height="13.5" as="geometry" />
        </mxCell>
        <mxCell id="aHM809MoDFuFs7wAWHGj-23" value="" style="sketch=0;pointerEvents=1;shadow=0;dashed=0;html=1;labelPosition=center;verticalLabelPosition=bottom;verticalAlign=top;outlineConnect=0;align=center;shape=mxgraph.office.users.call_center_agent;" parent="1" vertex="1">
          <mxGeometry x="200" y="60" width="10" height="10" as="geometry" />
        </mxCell>
        <mxCell id="aHM809MoDFuFs7wAWHGj-24" value="" style="html=1;verticalLabelPosition=bottom;align=center;labelBackgroundColor=#ffffff;verticalAlign=top;strokeWidth=1;strokeColor=#000000;shadow=0;dashed=0;shape=mxgraph.ios7.icons.bell;" parent="1" vertex="1">
          <mxGeometry x="220" y="60" width="10" height="10" as="geometry" />
        </mxCell>
        <mxCell id="aHM809MoDFuFs7wAWHGj-58" value="&lt;font style=&quot;font-size: 10px;&quot;&gt;Сделки&amp;nbsp; &amp;nbsp; &amp;nbsp; &amp;nbsp; &amp;nbsp; &amp;nbsp; &amp;nbsp; &amp;nbsp; &amp;nbsp; &amp;nbsp;&amp;nbsp;&lt;font color=&quot;#7a7a7a&quot;&gt;&amp;gt;&lt;/font&gt;&lt;/font&gt;" style="rounded=1;whiteSpace=wrap;html=1;align=left;" parent="1" vertex="1">
          <mxGeometry x="130" y="86.5" width="100" height="13.5" as="geometry" />
        </mxCell>
        <mxCell id="aHM809MoDFuFs7wAWHGj-60" value="&lt;font style=&quot;font-size: 10px;&quot;&gt;Сервисы&amp;nbsp; &amp;nbsp; &amp;nbsp; &amp;nbsp; &amp;nbsp; &amp;nbsp; &amp;nbsp; &amp;nbsp; &amp;nbsp;&lt;font color=&quot;#7a7a7a&quot;&gt;&amp;gt;&lt;/font&gt;&lt;/font&gt;" style="rounded=1;whiteSpace=wrap;html=1;align=left;" parent="1" vertex="1">
          <mxGeometry x="130" y="110" width="100" height="13.5" as="geometry" />
        </mxCell>
        <mxCell id="aHM809MoDFuFs7wAWHGj-61" value="" style="rounded=1;whiteSpace=wrap;html=1;" parent="1" vertex="1">
          <mxGeometry x="130" y="185" width="40" height="30" as="geometry" />
        </mxCell>
        <mxCell id="aHM809MoDFuFs7wAWHGj-62" value="" style="rounded=1;whiteSpace=wrap;html=1;" parent="1" vertex="1">
          <mxGeometry x="190" y="185" width="40" height="30" as="geometry" />
        </mxCell>
        <mxCell id="aHM809MoDFuFs7wAWHGj-63" value="" style="rounded=1;whiteSpace=wrap;html=1;" parent="1" vertex="1">
          <mxGeometry x="130" y="220" width="40" height="30" as="geometry" />
        </mxCell>
        <mxCell id="aHM809MoDFuFs7wAWHGj-64" value="" style="rounded=1;whiteSpace=wrap;html=1;" parent="1" vertex="1">
          <mxGeometry x="190" y="220" width="40" height="30" as="geometry" />
        </mxCell>
        <mxCell id="aHM809MoDFuFs7wAWHGj-65" value="&lt;div style=&quot;&quot;&gt;&lt;span style=&quot;background-color: initial;&quot;&gt;&lt;font style=&quot;font-size: 8px;&quot;&gt;Рекоммендации&lt;/font&gt;&lt;/span&gt;&lt;/div&gt;" style="text;html=1;align=left;verticalAlign=middle;resizable=0;points=[];autosize=1;strokeColor=none;fillColor=none;" parent="1" vertex="1">
          <mxGeometry x="130" y="158.5" width="80" height="30" as="geometry" />
        </mxCell>
        <mxCell id="aHM809MoDFuFs7wAWHGj-66" value="" style="sketch=0;pointerEvents=1;shadow=0;dashed=0;html=1;labelPosition=center;verticalLabelPosition=bottom;verticalAlign=top;outlineConnect=0;align=center;shape=mxgraph.office.concepts.home;" parent="1" vertex="1">
          <mxGeometry x="330" y="262" width="10" height="10" as="geometry" />
        </mxCell>
        <mxCell id="aHM809MoDFuFs7wAWHGj-68" value="" style="sketch=0;pointerEvents=1;shadow=0;dashed=0;html=1;labelPosition=center;verticalLabelPosition=bottom;verticalAlign=top;outlineConnect=0;align=center;shape=mxgraph.office.concepts.home;" parent="1" vertex="1">
          <mxGeometry x="330" y="580" width="10" height="10" as="geometry" />
        </mxCell>
        <mxCell id="aHM809MoDFuFs7wAWHGj-69" value="" style="sketch=0;pointerEvents=1;shadow=0;dashed=0;html=1;labelPosition=center;verticalLabelPosition=bottom;verticalAlign=top;outlineConnect=0;align=center;shape=mxgraph.office.concepts.home;" parent="1" vertex="1">
          <mxGeometry x="730" y="263.5" width="10" height="10" as="geometry" />
        </mxCell>
        <mxCell id="aHM809MoDFuFs7wAWHGj-70" value="" style="sketch=0;pointerEvents=1;shadow=0;dashed=0;html=1;labelPosition=center;verticalLabelPosition=bottom;verticalAlign=top;outlineConnect=0;align=center;shape=mxgraph.office.concepts.search;fillColor=#00CC00;strokeColor=#006600;" parent="1" vertex="1">
          <mxGeometry x="350" y="262" width="10" height="10" as="geometry" />
        </mxCell>
        <mxCell id="aHM809MoDFuFs7wAWHGj-72" value="" style="sketch=0;pointerEvents=1;shadow=0;dashed=0;html=1;labelPosition=center;verticalLabelPosition=bottom;verticalAlign=top;outlineConnect=0;align=center;shape=mxgraph.office.concepts.search;fillColor=#00CC00;strokeColor=#006600;" parent="1" vertex="1">
          <mxGeometry x="750" y="263.5" width="10" height="10" as="geometry" />
        </mxCell>
        <mxCell id="aHM809MoDFuFs7wAWHGj-73" value="" style="sketch=0;pointerEvents=1;shadow=0;dashed=0;html=1;labelPosition=center;verticalLabelPosition=bottom;verticalAlign=top;outlineConnect=0;align=center;shape=mxgraph.office.concepts.search;fillColor=#00CC00;strokeColor=#006600;" parent="1" vertex="1">
          <mxGeometry x="350" y="580" width="10" height="10" as="geometry" />
        </mxCell>
        <mxCell id="aHM809MoDFuFs7wAWHGj-74" value="" style="verticalLabelPosition=bottom;verticalAlign=top;html=1;shape=mxgraph.basic.heart" parent="1" vertex="1">
          <mxGeometry x="375" y="580" width="10" height="10" as="geometry" />
        </mxCell>
        <mxCell id="aHM809MoDFuFs7wAWHGj-75" value="" style="verticalLabelPosition=bottom;verticalAlign=top;html=1;shape=mxgraph.basic.heart" parent="1" vertex="1">
          <mxGeometry x="775" y="263.5" width="10" height="10" as="geometry" />
        </mxCell>
        <mxCell id="aHM809MoDFuFs7wAWHGj-77" value="" style="verticalLabelPosition=bottom;verticalAlign=top;html=1;shape=mxgraph.basic.heart" parent="1" vertex="1">
          <mxGeometry x="375" y="262" width="10" height="10" as="geometry" />
        </mxCell>
        <mxCell id="aHM809MoDFuFs7wAWHGj-78" value="" style="whiteSpace=wrap;html=1;shape=mxgraph.basic.oval_callout;perimeterSpacing=0;" parent="1" vertex="1">
          <mxGeometry x="400" y="262" width="10" height="10" as="geometry" />
        </mxCell>
        <mxCell id="aHM809MoDFuFs7wAWHGj-79" value="" style="whiteSpace=wrap;html=1;shape=mxgraph.basic.oval_callout;perimeterSpacing=0;" parent="1" vertex="1">
          <mxGeometry x="800" y="263.5" width="10" height="10" as="geometry" />
        </mxCell>
        <mxCell id="aHM809MoDFuFs7wAWHGj-81" value="" style="whiteSpace=wrap;html=1;shape=mxgraph.basic.oval_callout;perimeterSpacing=0;" parent="1" vertex="1">
          <mxGeometry x="395" y="580" width="10" height="10" as="geometry" />
        </mxCell>
        <mxCell id="aHM809MoDFuFs7wAWHGj-84" value="" style="sketch=0;pointerEvents=1;shadow=0;dashed=0;html=1;labelPosition=center;verticalLabelPosition=bottom;verticalAlign=top;outlineConnect=0;align=center;shape=mxgraph.office.users.user;" parent="1" vertex="1">
          <mxGeometry x="420" y="262" width="10" height="10" as="geometry" />
        </mxCell>
        <mxCell id="aHM809MoDFuFs7wAWHGj-86" value="" style="sketch=0;pointerEvents=1;shadow=0;dashed=0;html=1;labelPosition=center;verticalLabelPosition=bottom;verticalAlign=top;outlineConnect=0;align=center;shape=mxgraph.office.users.user;" parent="1" vertex="1">
          <mxGeometry x="420" y="580" width="10" height="10" as="geometry" />
        </mxCell>
        <mxCell id="aHM809MoDFuFs7wAWHGj-87" value="" style="sketch=0;pointerEvents=1;shadow=0;dashed=0;html=1;labelPosition=center;verticalLabelPosition=bottom;verticalAlign=top;outlineConnect=0;align=center;shape=mxgraph.office.users.user;" parent="1" vertex="1">
          <mxGeometry x="820" y="263.5" width="10" height="10" as="geometry" />
        </mxCell>
        <mxCell id="aHM809MoDFuFs7wAWHGj-88" value="&lt;div style=&quot;&quot;&gt;&lt;span style=&quot;font-size: 8px;&quot;&gt;Для вас&lt;/span&gt;&lt;/div&gt;" style="text;html=1;align=left;verticalAlign=middle;resizable=0;points=[];autosize=1;strokeColor=none;fillColor=none;" parent="1" vertex="1">
          <mxGeometry x="130" y="120" width="50" height="30" as="geometry" />
        </mxCell>
        <mxCell id="aHM809MoDFuFs7wAWHGj-90" value="&lt;span style=&quot;font-size: 10px;&quot;&gt;Информация&lt;/span&gt;" style="rounded=1;whiteSpace=wrap;html=1;align=left;" parent="1" vertex="1">
          <mxGeometry x="130" y="145" width="100" height="13.5" as="geometry" />
        </mxCell>
        <mxCell id="aHM809MoDFuFs7wAWHGj-93" value="" style="html=1;verticalLabelPosition=bottom;align=center;labelBackgroundColor=#ffffff;verticalAlign=top;strokeWidth=1;shadow=0;dashed=0;shape=mxgraph.ios7.icons.page_navigation;pointerEvents=1" parent="1" vertex="1">
          <mxGeometry x="175" y="163" width="15" height="2.4" as="geometry" />
        </mxCell>
        <mxCell id="aHM809MoDFuFs7wAWHGj-94" value="" style="rounded=1;whiteSpace=wrap;html=1;fillColor=#000000;" parent="1" vertex="1">
          <mxGeometry x="167.5" y="163" width="5" height="2.4" as="geometry" />
        </mxCell>
        <mxCell id="aHM809MoDFuFs7wAWHGj-105" value="" style="endArrow=none;html=1;rounded=0;strokeWidth=1;" parent="1" edge="1">
          <mxGeometry width="50" height="50" relative="1" as="geometry">
            <mxPoint x="130" y="320" as="sourcePoint" />
            <mxPoint x="150" y="272" as="targetPoint" />
          </mxGeometry>
        </mxCell>
        <mxCell id="aHM809MoDFuFs7wAWHGj-107" value="&lt;span style=&quot;font-size: 10px;&quot;&gt;Кнопка &quot;Поиск&quot;&lt;/span&gt;" style="rounded=1;whiteSpace=wrap;html=1;align=left;" parent="1" vertex="1">
          <mxGeometry x="112.5" y="320" width="77.5" height="13.5" as="geometry" />
        </mxCell>
        <mxCell id="aHM809MoDFuFs7wAWHGj-108" value="&lt;div style=&quot;&quot;&gt;&lt;font style=&quot;font-size: 6px;&quot;&gt;&lt;b&gt;Фильтры&lt;/b&gt;&lt;/font&gt;&lt;/div&gt;" style="text;html=1;align=center;verticalAlign=middle;resizable=0;points=[];autosize=1;strokeColor=none;fillColor=none;" parent="1" vertex="1">
          <mxGeometry x="355" y="48.5" width="50" height="30" as="geometry" />
        </mxCell>
        <mxCell id="aHM809MoDFuFs7wAWHGj-115" value="&lt;span style=&quot;color: rgba(0, 0, 0, 0); font-family: monospace; font-size: 0px; white-space: nowrap;&quot;&gt;%3CmxGraphModel%3E%3Croot%3E%3CmxCell%20id%3D%220%22%2F%3E%3CmxCell%20id%3D%221%22%20parent%3D%220%22%2F%3E%3CmxCell%20id%3D%222%22%20value%3D%22%26lt%3Bspan%20style%3D%26quot%3Bfont-size%3A%2010px%3B%26quot%3B%26gt%3B%D0%98%D0%BD%D1%84%D0%BE%D1%80%D0%BC%D0%B0%D1%86%D0%B8%D1%8F%26lt%3B%2Fspan%26gt%3B%22%20style%3D%22rounded%3D1%3BwhiteSpace%3Dwrap%3Bhtml%3D1%3Balign%3Dleft%3B%22%20vertex%3D%221%22%20parent%3D%221%22%3E%3CmxGeometry%20x%3D%22130%22%20y%3D%22145%22%20width%3D%22100%22%20height%3D%2213.5%22%20as%3D%22geometry%22%2F%3E%3C%2FmxCell%3E%3C%2Froot%3E%3C%2FmxGraphModel%3E&lt;/span&gt;" style="rounded=1;whiteSpace=wrap;html=1;align=left;" parent="1" vertex="1">
          <mxGeometry x="330" y="78.5" width="100" height="13.5" as="geometry" />
        </mxCell>
        <mxCell id="aHM809MoDFuFs7wAWHGj-116" value="&lt;font style=&quot;font-size: 6px;&quot;&gt;Купить&lt;/font&gt;" style="rounded=1;whiteSpace=wrap;html=1;align=center;arcSize=32;" parent="1" vertex="1">
          <mxGeometry x="330" y="78.5" width="50" height="13.5" as="geometry" />
        </mxCell>
        <mxCell id="aHM809MoDFuFs7wAWHGj-118" value="&lt;font style=&quot;font-size: 6px;&quot;&gt;Снять&lt;/font&gt;" style="rounded=1;whiteSpace=wrap;html=1;align=center;arcSize=32;" parent="1" vertex="1">
          <mxGeometry x="380" y="78.5" width="50" height="13.5" as="geometry" />
        </mxCell>
        <mxCell id="aHM809MoDFuFs7wAWHGj-119" value="&lt;font style=&quot;font-size: 6px;&quot;&gt;Тип недвижимости&lt;/font&gt;" style="rounded=1;whiteSpace=wrap;html=1;align=left;" parent="1" vertex="1">
          <mxGeometry x="330" y="100" width="100" height="13.5" as="geometry" />
        </mxCell>
        <mxCell id="aHM809MoDFuFs7wAWHGj-146" style="edgeStyle=orthogonalEdgeStyle;rounded=0;orthogonalLoop=1;jettySize=auto;html=1;entryX=0.5;entryY=1;entryDx=0;entryDy=0;" parent="1" source="aHM809MoDFuFs7wAWHGj-125" target="aHM809MoDFuFs7wAWHGj-8" edge="1">
          <mxGeometry relative="1" as="geometry" />
        </mxCell>
        <mxCell id="aHM809MoDFuFs7wAWHGj-125" value="&lt;span style=&quot;font-size: 6px;&quot;&gt;Цена&lt;/span&gt;" style="rounded=1;whiteSpace=wrap;html=1;align=left;" parent="1" vertex="1">
          <mxGeometry x="330" y="120" width="100" height="13.5" as="geometry" />
        </mxCell>
        <mxCell id="aHM809MoDFuFs7wAWHGj-126" value="&lt;font style=&quot;font-size: 6px;&quot;&gt;Не важно&amp;nbsp; &amp;gt;&lt;/font&gt;" style="text;html=1;align=right;verticalAlign=middle;resizable=0;points=[];autosize=1;strokeColor=none;fillColor=none;fontColor=#7A7A7A;" parent="1" vertex="1">
          <mxGeometry x="370" y="111.75" width="60" height="30" as="geometry" />
        </mxCell>
        <mxCell id="aHM809MoDFuFs7wAWHGj-129" value="&lt;div style=&quot;&quot;&gt;&lt;span style=&quot;font-size: 8px;&quot;&gt;Расположение&lt;/span&gt;&lt;/div&gt;" style="text;html=1;align=left;verticalAlign=middle;resizable=0;points=[];autosize=1;strokeColor=none;fillColor=none;" parent="1" vertex="1">
          <mxGeometry x="330" y="130" width="80" height="30" as="geometry" />
        </mxCell>
        <mxCell id="aHM809MoDFuFs7wAWHGj-130" value="&lt;font style=&quot;font-size: 6px;&quot;&gt;Локация&lt;/font&gt;" style="rounded=1;whiteSpace=wrap;html=1;align=left;" parent="1" vertex="1">
          <mxGeometry x="330" y="160" width="100" height="13.5" as="geometry" />
        </mxCell>
        <mxCell id="aHM809MoDFuFs7wAWHGj-132" value="&lt;font style=&quot;font-size: 6px;&quot;&gt;&amp;gt;&lt;/font&gt;" style="text;html=1;align=right;verticalAlign=middle;resizable=0;points=[];autosize=1;strokeColor=none;fillColor=none;fontColor=#7A7A7A;" parent="1" vertex="1">
          <mxGeometry x="400" y="151.75" width="30" height="30" as="geometry" />
        </mxCell>
        <mxCell id="aHM809MoDFuFs7wAWHGj-133" value="&lt;span style=&quot;color: rgb(0, 0, 0); font-family: Helvetica; font-size: 8px; font-style: normal; font-variant-ligatures: normal; font-variant-caps: normal; font-weight: 400; letter-spacing: normal; orphans: 2; text-align: left; text-indent: 0px; text-transform: none; white-space: nowrap; widows: 2; word-spacing: 0px; -webkit-text-stroke-width: 0px; background-color: rgb(251, 251, 251); text-decoration-thickness: initial; text-decoration-style: initial; text-decoration-color: initial; display: inline !important; float: none;&quot;&gt;Площадь&lt;/span&gt;" style="text;whiteSpace=wrap;html=1;" parent="1" vertex="1">
          <mxGeometry x="330" y="170" width="90" height="26.5" as="geometry" />
        </mxCell>
        <mxCell id="aHM809MoDFuFs7wAWHGj-135" value="" style="rounded=1;whiteSpace=wrap;html=1;align=left;" parent="1" vertex="1">
          <mxGeometry x="330" y="195" width="100" height="13.5" as="geometry" />
        </mxCell>
        <mxCell id="aHM809MoDFuFs7wAWHGj-136" value="&lt;font style=&quot;font-size: 6px;&quot;&gt;От&lt;/font&gt;" style="rounded=1;whiteSpace=wrap;html=1;align=left;arcSize=32;" parent="1" vertex="1">
          <mxGeometry x="330" y="195" width="50" height="13.5" as="geometry" />
        </mxCell>
        <mxCell id="aHM809MoDFuFs7wAWHGj-137" value="&lt;font style=&quot;font-size: 6px;&quot;&gt;До&lt;/font&gt;" style="rounded=1;whiteSpace=wrap;html=1;align=left;arcSize=32;" parent="1" vertex="1">
          <mxGeometry x="380" y="195" width="50" height="13.5" as="geometry" />
        </mxCell>
        <mxCell id="aHM809MoDFuFs7wAWHGj-140" value="&lt;font style=&quot;font-size: 6px;&quot;&gt;Показать объявления&lt;/font&gt;" style="rounded=1;whiteSpace=wrap;html=1;align=center;" parent="1" vertex="1">
          <mxGeometry x="330" y="228.5" width="100" height="21.5" as="geometry" />
        </mxCell>
        <mxCell id="aHM809MoDFuFs7wAWHGj-142" value="&lt;font style=&quot;font-size: 6px;&quot;&gt;&amp;gt;&lt;/font&gt;" style="text;html=1;align=right;verticalAlign=middle;resizable=0;points=[];autosize=1;strokeColor=none;fillColor=none;fontColor=#7A7A7A;" parent="1" vertex="1">
          <mxGeometry x="400" y="91.75" width="30" height="30" as="geometry" />
        </mxCell>
        <mxCell id="aHM809MoDFuFs7wAWHGj-148" value="&lt;div style=&quot;&quot;&gt;&lt;span style=&quot;font-size: 8px;&quot;&gt;Цена&lt;/span&gt;&lt;/div&gt;" style="text;html=1;align=left;verticalAlign=middle;resizable=0;points=[];autosize=1;strokeColor=none;fillColor=none;" parent="1" vertex="1">
          <mxGeometry x="527.5" y="110" width="40" height="30" as="geometry" />
        </mxCell>
        <mxCell id="aHM809MoDFuFs7wAWHGj-150" value="&lt;font style=&quot;font-size: 6px;&quot;&gt;От&lt;/font&gt;" style="rounded=1;whiteSpace=wrap;html=1;align=left;" parent="1" vertex="1">
          <mxGeometry x="530" y="153.25" width="100" height="13.5" as="geometry" />
        </mxCell>
        <mxCell id="aHM809MoDFuFs7wAWHGj-151" value="&lt;span style=&quot;font-size: 6px;&quot;&gt;До&lt;/span&gt;" style="rounded=1;whiteSpace=wrap;html=1;align=left;" parent="1" vertex="1">
          <mxGeometry x="530" y="173.5" width="100" height="13.5" as="geometry" />
        </mxCell>
        <mxCell id="aHM809MoDFuFs7wAWHGj-152" value="&lt;font style=&quot;font-size: 6px;&quot;&gt;руб.&lt;/font&gt;" style="text;html=1;align=right;verticalAlign=middle;resizable=0;points=[];autosize=1;strokeColor=none;fillColor=none;fontColor=#7A7A7A;" parent="1" vertex="1">
          <mxGeometry x="600" y="143.5" width="30" height="30" as="geometry" />
        </mxCell>
        <mxCell id="aHM809MoDFuFs7wAWHGj-153" value="&lt;span style=&quot;font-size: 6px;&quot;&gt;руб.&lt;/span&gt;" style="text;html=1;align=right;verticalAlign=middle;resizable=0;points=[];autosize=1;strokeColor=none;fillColor=none;fontColor=#7A7A7A;" parent="1" vertex="1">
          <mxGeometry x="600" y="165.4" width="30" height="30" as="geometry" />
        </mxCell>
        <mxCell id="aHM809MoDFuFs7wAWHGj-154" value="" style="rounded=1;whiteSpace=wrap;html=1;align=left;" parent="1" vertex="1">
          <mxGeometry x="530" y="193.25" width="100" height="13.5" as="geometry" />
        </mxCell>
        <mxCell id="aHM809MoDFuFs7wAWHGj-155" value="&lt;font style=&quot;font-size: 6px;&quot;&gt;Отмена&lt;/font&gt;" style="rounded=1;whiteSpace=wrap;html=1;align=center;arcSize=32;" parent="1" vertex="1">
          <mxGeometry x="530" y="193.25" width="50" height="13.5" as="geometry" />
        </mxCell>
        <mxCell id="aHM809MoDFuFs7wAWHGj-156" value="&lt;font style=&quot;font-size: 6px;&quot;&gt;Сохранить&lt;/font&gt;" style="rounded=1;whiteSpace=wrap;html=1;align=center;arcSize=32;" parent="1" vertex="1">
          <mxGeometry x="580" y="193.25" width="50" height="13.5" as="geometry" />
        </mxCell>
        <mxCell id="aHM809MoDFuFs7wAWHGj-157" value="&lt;font style=&quot;font-size: 8px;&quot;&gt;1&lt;/font&gt;" style="rounded=1;whiteSpace=wrap;html=1;align=center;arcSize=32;" parent="1" vertex="1">
          <mxGeometry x="530" y="213.5" width="25" height="10" as="geometry" />
        </mxCell>
        <mxCell id="aHM809MoDFuFs7wAWHGj-158" value="&lt;font style=&quot;font-size: 8px;&quot;&gt;2&lt;/font&gt;" style="rounded=1;whiteSpace=wrap;html=1;align=center;arcSize=32;" parent="1" vertex="1">
          <mxGeometry x="567.5" y="213.5" width="25" height="10" as="geometry" />
        </mxCell>
        <mxCell id="aHM809MoDFuFs7wAWHGj-159" value="&lt;font style=&quot;font-size: 8px;&quot;&gt;3&lt;/font&gt;" style="rounded=1;whiteSpace=wrap;html=1;align=center;arcSize=32;" parent="1" vertex="1">
          <mxGeometry x="605" y="213.5" width="25" height="10" as="geometry" />
        </mxCell>
        <mxCell id="aHM809MoDFuFs7wAWHGj-160" value="&lt;font style=&quot;font-size: 8px;&quot;&gt;4&lt;/font&gt;" style="rounded=1;whiteSpace=wrap;html=1;align=center;arcSize=32;" parent="1" vertex="1">
          <mxGeometry x="530" y="228.5" width="25" height="10" as="geometry" />
        </mxCell>
        <mxCell id="aHM809MoDFuFs7wAWHGj-161" value="&lt;font style=&quot;font-size: 8px;&quot;&gt;5&lt;/font&gt;" style="rounded=1;whiteSpace=wrap;html=1;align=center;arcSize=32;" parent="1" vertex="1">
          <mxGeometry x="567.5" y="228.5" width="25" height="10" as="geometry" />
        </mxCell>
        <mxCell id="aHM809MoDFuFs7wAWHGj-162" value="&lt;font style=&quot;font-size: 8px;&quot;&gt;6&lt;/font&gt;" style="rounded=1;whiteSpace=wrap;html=1;align=center;arcSize=32;" parent="1" vertex="1">
          <mxGeometry x="605" y="228.5" width="25" height="10" as="geometry" />
        </mxCell>
        <mxCell id="aHM809MoDFuFs7wAWHGj-163" value="&lt;font style=&quot;font-size: 8px;&quot;&gt;7&lt;/font&gt;" style="rounded=1;whiteSpace=wrap;html=1;align=center;arcSize=32;" parent="1" vertex="1">
          <mxGeometry x="530" y="243.5" width="25" height="10" as="geometry" />
        </mxCell>
        <mxCell id="aHM809MoDFuFs7wAWHGj-164" value="&lt;font style=&quot;font-size: 8px;&quot;&gt;8&lt;/font&gt;" style="rounded=1;whiteSpace=wrap;html=1;align=center;arcSize=32;" parent="1" vertex="1">
          <mxGeometry x="567.5" y="243.5" width="25" height="10" as="geometry" />
        </mxCell>
        <mxCell id="aHM809MoDFuFs7wAWHGj-165" value="&lt;font style=&quot;font-size: 8px;&quot;&gt;9&lt;/font&gt;" style="rounded=1;whiteSpace=wrap;html=1;align=center;arcSize=32;" parent="1" vertex="1">
          <mxGeometry x="605" y="243.5" width="25" height="10" as="geometry" />
        </mxCell>
        <mxCell id="aHM809MoDFuFs7wAWHGj-166" value="&lt;font style=&quot;font-size: 8px;&quot;&gt;0&lt;/font&gt;" style="rounded=1;whiteSpace=wrap;html=1;align=center;arcSize=32;" parent="1" vertex="1">
          <mxGeometry x="567.5" y="258.75" width="25" height="10" as="geometry" />
        </mxCell>
        <mxCell id="aHM809MoDFuFs7wAWHGj-177" value="&lt;div style=&quot;&quot;&gt;&lt;font style=&quot;font-size: 6px;&quot;&gt;&lt;b&gt;Фильтры&lt;/b&gt;&lt;/font&gt;&lt;/div&gt;" style="text;html=1;align=center;verticalAlign=middle;resizable=0;points=[];autosize=1;strokeColor=none;fillColor=none;" parent="1" vertex="1">
          <mxGeometry x="355" y="370" width="50" height="30" as="geometry" />
        </mxCell>
        <mxCell id="aHM809MoDFuFs7wAWHGj-180" value="&lt;span style=&quot;color: rgba(0, 0, 0, 0); font-family: monospace; font-size: 0px; white-space: nowrap;&quot;&gt;%3CmxGraphModel%3E%3Croot%3E%3CmxCell%20id%3D%220%22%2F%3E%3CmxCell%20id%3D%221%22%20parent%3D%220%22%2F%3E%3CmxCell%20id%3D%222%22%20value%3D%22%26lt%3Bspan%20style%3D%26quot%3Bfont-size%3A%2010px%3B%26quot%3B%26gt%3B%D0%98%D0%BD%D1%84%D0%BE%D1%80%D0%BC%D0%B0%D1%86%D0%B8%D1%8F%26lt%3B%2Fspan%26gt%3B%22%20style%3D%22rounded%3D1%3BwhiteSpace%3Dwrap%3Bhtml%3D1%3Balign%3Dleft%3B%22%20vertex%3D%221%22%20parent%3D%221%22%3E%3CmxGeometry%20x%3D%22130%22%20y%3D%22145%22%20width%3D%22100%22%20height%3D%2213.5%22%20as%3D%22geometry%22%2F%3E%3C%2FmxCell%3E%3C%2Froot%3E%3C%2FmxGraphModel%3E&lt;/span&gt;" style="rounded=1;whiteSpace=wrap;html=1;align=left;" parent="1" vertex="1">
          <mxGeometry x="330" y="400" width="100" height="13.5" as="geometry" />
        </mxCell>
        <mxCell id="aHM809MoDFuFs7wAWHGj-181" value="&lt;font style=&quot;font-size: 6px;&quot;&gt;Купить&lt;/font&gt;" style="rounded=1;whiteSpace=wrap;html=1;align=center;arcSize=32;" parent="1" vertex="1">
          <mxGeometry x="330" y="400" width="50" height="13.5" as="geometry" />
        </mxCell>
        <mxCell id="aHM809MoDFuFs7wAWHGj-182" value="&lt;font style=&quot;font-size: 6px;&quot;&gt;Снять&lt;/font&gt;" style="rounded=1;whiteSpace=wrap;html=1;align=center;arcSize=32;" parent="1" vertex="1">
          <mxGeometry x="380" y="400" width="50" height="13.5" as="geometry" />
        </mxCell>
        <mxCell id="aHM809MoDFuFs7wAWHGj-183" value="&lt;font style=&quot;font-size: 6px;&quot;&gt;Тип недвижимости&lt;/font&gt;" style="rounded=1;whiteSpace=wrap;html=1;align=left;" parent="1" vertex="1">
          <mxGeometry x="330" y="420" width="100" height="13.5" as="geometry" />
        </mxCell>
        <mxCell id="aHM809MoDFuFs7wAWHGj-184" value="&lt;span style=&quot;font-size: 6px;&quot;&gt;Цена&lt;/span&gt;" style="rounded=1;whiteSpace=wrap;html=1;align=left;" parent="1" vertex="1">
          <mxGeometry x="330" y="443.75" width="100" height="13.5" as="geometry" />
        </mxCell>
        <mxCell id="aHM809MoDFuFs7wAWHGj-185" value="&lt;span style=&quot;font-size: 6px;&quot;&gt;&amp;nbsp;Диапазон цен руб.&amp;nbsp; &amp;nbsp; &amp;nbsp; &amp;nbsp;&amp;nbsp;&lt;/span&gt;" style="text;html=1;align=right;verticalAlign=middle;resizable=0;points=[];autosize=1;strokeColor=none;fillColor=none;fontColor=#7A7A7A;" parent="1" vertex="1">
          <mxGeometry x="336" y="435.5" width="90" height="30" as="geometry" />
        </mxCell>
        <mxCell id="aHM809MoDFuFs7wAWHGj-186" value="&lt;div style=&quot;&quot;&gt;&lt;span style=&quot;font-size: 8px;&quot;&gt;Расположение&lt;/span&gt;&lt;/div&gt;" style="text;html=1;align=left;verticalAlign=middle;resizable=0;points=[];autosize=1;strokeColor=none;fillColor=none;" parent="1" vertex="1">
          <mxGeometry x="330" y="453.5" width="80" height="30" as="geometry" />
        </mxCell>
        <mxCell id="aHM809MoDFuFs7wAWHGj-187" value="&lt;font style=&quot;font-size: 6px;&quot;&gt;Локация&lt;/font&gt;" style="rounded=1;whiteSpace=wrap;html=1;align=left;" parent="1" vertex="1">
          <mxGeometry x="330" y="483.5" width="100" height="13.5" as="geometry" />
        </mxCell>
        <mxCell id="aHM809MoDFuFs7wAWHGj-188" value="&lt;font style=&quot;font-size: 6px;&quot;&gt;&amp;gt;&lt;/font&gt;" style="text;html=1;align=right;verticalAlign=middle;resizable=0;points=[];autosize=1;strokeColor=none;fillColor=none;fontColor=#7A7A7A;" parent="1" vertex="1">
          <mxGeometry x="400" y="475.25" width="30" height="30" as="geometry" />
        </mxCell>
        <mxCell id="aHM809MoDFuFs7wAWHGj-189" value="&lt;span style=&quot;color: rgb(0, 0, 0); font-family: Helvetica; font-size: 8px; font-style: normal; font-variant-ligatures: normal; font-variant-caps: normal; font-weight: 400; letter-spacing: normal; orphans: 2; text-align: left; text-indent: 0px; text-transform: none; white-space: nowrap; widows: 2; word-spacing: 0px; -webkit-text-stroke-width: 0px; background-color: rgb(251, 251, 251); text-decoration-thickness: initial; text-decoration-style: initial; text-decoration-color: initial; display: inline !important; float: none;&quot;&gt;Площадь&lt;/span&gt;" style="text;whiteSpace=wrap;html=1;" parent="1" vertex="1">
          <mxGeometry x="330" y="491" width="90" height="26.5" as="geometry" />
        </mxCell>
        <mxCell id="aHM809MoDFuFs7wAWHGj-190" value="" style="rounded=1;whiteSpace=wrap;html=1;align=left;" parent="1" vertex="1">
          <mxGeometry x="330" y="517.5" width="100" height="13.5" as="geometry" />
        </mxCell>
        <mxCell id="aHM809MoDFuFs7wAWHGj-191" value="&lt;font style=&quot;font-size: 6px;&quot;&gt;От&lt;/font&gt;" style="rounded=1;whiteSpace=wrap;html=1;align=left;arcSize=32;" parent="1" vertex="1">
          <mxGeometry x="330" y="517.5" width="50" height="13.5" as="geometry" />
        </mxCell>
        <mxCell id="aHM809MoDFuFs7wAWHGj-192" value="&lt;font style=&quot;font-size: 6px;&quot;&gt;До&lt;/font&gt;" style="rounded=1;whiteSpace=wrap;html=1;align=left;arcSize=32;" parent="1" vertex="1">
          <mxGeometry x="380" y="517.5" width="50" height="13.5" as="geometry" />
        </mxCell>
        <mxCell id="9tvq5RSDOTkzpY2uj0eK-35" style="edgeStyle=orthogonalEdgeStyle;rounded=0;orthogonalLoop=1;jettySize=auto;html=1;entryX=1;entryY=0.5;entryDx=0;entryDy=0;" parent="1" source="aHM809MoDFuFs7wAWHGj-193" target="aHM809MoDFuFs7wAWHGj-11" edge="1">
          <mxGeometry relative="1" as="geometry" />
        </mxCell>
        <mxCell id="aHM809MoDFuFs7wAWHGj-193" value="&lt;font style=&quot;font-size: 6px;&quot;&gt;Показать объявления&lt;/font&gt;" style="rounded=1;whiteSpace=wrap;html=1;align=center;" parent="1" vertex="1">
          <mxGeometry x="330" y="550" width="100" height="21.5" as="geometry" />
        </mxCell>
        <mxCell id="aHM809MoDFuFs7wAWHGj-196" value="&lt;font color=&quot;#7a7a7a&quot; style=&quot;font-size: 6px;&quot;&gt;Локация&lt;/font&gt;" style="rounded=1;whiteSpace=wrap;html=1;align=left;" parent="1" vertex="1">
          <mxGeometry x="730" y="56.5" width="50" height="13.5" as="geometry" />
        </mxCell>
        <mxCell id="aHM809MoDFuFs7wAWHGj-198" value="&lt;span style=&quot;font-size: 6px;&quot;&gt;Фильтры&lt;/span&gt;" style="rounded=1;whiteSpace=wrap;html=1;align=center;arcSize=32;" parent="1" vertex="1">
          <mxGeometry x="800" y="56.5" width="30" height="13.5" as="geometry" />
        </mxCell>
        <mxCell id="aHM809MoDFuFs7wAWHGj-201" value="&lt;span style=&quot;font-size: 6px;&quot;&gt;Кол-во объявлений&lt;/span&gt;" style="text;html=1;align=right;verticalAlign=middle;resizable=0;points=[];autosize=1;strokeColor=none;fillColor=none;fontColor=#7A7A7A;" parent="1" vertex="1">
          <mxGeometry x="705" y="68.5" width="80" height="30" as="geometry" />
        </mxCell>
        <mxCell id="aHM809MoDFuFs7wAWHGj-202" value="&lt;span style=&quot;font-size: 6px;&quot;&gt;Сортировка&lt;/span&gt;" style="rounded=1;whiteSpace=wrap;html=1;align=center;arcSize=32;" parent="1" vertex="1">
          <mxGeometry x="790" y="76.75" width="40" height="13.5" as="geometry" />
        </mxCell>
        <mxCell id="aHM809MoDFuFs7wAWHGj-203" value="Объект" style="rounded=1;whiteSpace=wrap;html=1;" parent="1" vertex="1">
          <mxGeometry x="730" y="103" width="100" height="60" as="geometry" />
        </mxCell>
        <mxCell id="aHM809MoDFuFs7wAWHGj-208" value="&lt;span style=&quot;font-size: 6px;&quot;&gt;Цена (из выбранного диапазона)&lt;/span&gt;" style="rounded=1;whiteSpace=wrap;html=1;align=left;arcSize=50;" parent="1" vertex="1">
          <mxGeometry x="730" y="149.5" width="100" height="13.5" as="geometry" />
        </mxCell>
        <mxCell id="aHM809MoDFuFs7wAWHGj-209" value="Объект" style="rounded=1;whiteSpace=wrap;html=1;" parent="1" vertex="1">
          <mxGeometry x="730" y="173.5" width="100" height="60" as="geometry" />
        </mxCell>
        <mxCell id="aHM809MoDFuFs7wAWHGj-210" value="&lt;span style=&quot;font-size: 6px;&quot;&gt;Цена (из выбранного диапазона)&lt;/span&gt;" style="rounded=1;whiteSpace=wrap;html=1;align=left;arcSize=50;" parent="1" vertex="1">
          <mxGeometry x="730" y="220" width="100" height="13.5" as="geometry" />
        </mxCell>
        <mxCell id="aHM809MoDFuFs7wAWHGj-214" value="&lt;font style=&quot;font-size: 6px;&quot;&gt;На карте&lt;/font&gt;" style="rounded=1;whiteSpace=wrap;html=1;align=left;arcSize=32;" parent="1" vertex="1">
          <mxGeometry x="730" y="241.75" width="40" height="13.5" as="geometry" />
        </mxCell>
        <mxCell id="aHM809MoDFuFs7wAWHGj-215" value="" style="html=1;verticalLabelPosition=bottom;align=center;labelBackgroundColor=#ffffff;verticalAlign=top;strokeWidth=1;strokeColor=#000000;shadow=0;dashed=0;shape=mxgraph.ios7.icons.location;" parent="1" vertex="1">
          <mxGeometry x="758" y="243.5" width="10" height="10" as="geometry" />
        </mxCell>
        <mxCell id="C7LZBwxP7M1bNRioeBZp-1" value="&lt;span style=&quot;font-size: 6px;&quot;&gt;Цена&lt;/span&gt;" style="rounded=1;whiteSpace=wrap;html=1;align=left;arcSize=50;" parent="1" vertex="1">
          <mxGeometry x="190" y="236.5" width="40" height="13.5" as="geometry" />
        </mxCell>
        <mxCell id="C7LZBwxP7M1bNRioeBZp-2" value="&lt;span style=&quot;font-size: 6px;&quot;&gt;Цена&lt;/span&gt;" style="rounded=1;whiteSpace=wrap;html=1;align=left;arcSize=50;" parent="1" vertex="1">
          <mxGeometry x="130" y="236.5" width="40" height="13.5" as="geometry" />
        </mxCell>
        <mxCell id="C7LZBwxP7M1bNRioeBZp-3" value="&lt;span style=&quot;font-size: 6px;&quot;&gt;Цена&lt;/span&gt;" style="rounded=1;whiteSpace=wrap;html=1;align=left;arcSize=50;" parent="1" vertex="1">
          <mxGeometry x="190" y="201.5" width="40" height="13.5" as="geometry" />
        </mxCell>
        <mxCell id="C7LZBwxP7M1bNRioeBZp-4" value="&lt;span style=&quot;font-size: 6px;&quot;&gt;Цена&lt;/span&gt;" style="rounded=1;whiteSpace=wrap;html=1;align=left;arcSize=50;" parent="1" vertex="1">
          <mxGeometry x="130" y="201.5" width="40" height="13.5" as="geometry" />
        </mxCell>
        <mxCell id="C7LZBwxP7M1bNRioeBZp-5" value="&lt;font style=&quot;font-size: 10px;&quot;&gt;Объект&lt;/font&gt;" style="text;html=1;align=center;verticalAlign=middle;resizable=0;points=[];autosize=1;strokeColor=none;fillColor=none;" parent="1" vertex="1">
          <mxGeometry x="120" y="178.5" width="60" height="30" as="geometry" />
        </mxCell>
        <mxCell id="C7LZBwxP7M1bNRioeBZp-6" value="&lt;font style=&quot;font-size: 10px;&quot;&gt;Объект&lt;/font&gt;" style="text;html=1;align=center;verticalAlign=middle;resizable=0;points=[];autosize=1;strokeColor=none;fillColor=none;" parent="1" vertex="1">
          <mxGeometry x="180" y="178.5" width="60" height="30" as="geometry" />
        </mxCell>
        <mxCell id="C7LZBwxP7M1bNRioeBZp-7" value="&lt;font style=&quot;font-size: 10px;&quot;&gt;Объект&lt;/font&gt;" style="text;html=1;align=center;verticalAlign=middle;resizable=0;points=[];autosize=1;strokeColor=none;fillColor=none;" parent="1" vertex="1">
          <mxGeometry x="120" y="213.5" width="60" height="30" as="geometry" />
        </mxCell>
        <mxCell id="C7LZBwxP7M1bNRioeBZp-8" value="&lt;font style=&quot;font-size: 10px;&quot;&gt;Объект&lt;/font&gt;" style="text;html=1;align=center;verticalAlign=middle;resizable=0;points=[];autosize=1;strokeColor=none;fillColor=none;" parent="1" vertex="1">
          <mxGeometry x="180" y="213.5" width="60" height="30" as="geometry" />
        </mxCell>
        <mxCell id="C7LZBwxP7M1bNRioeBZp-13" value="&lt;span style=&quot;font-size: 10px;&quot;&gt;Поля для установления диапазона цен&lt;/span&gt;" style="rounded=1;whiteSpace=wrap;html=1;align=center;" parent="1" vertex="1">
          <mxGeometry x="632" y="-10" width="118" height="33.5" as="geometry" />
        </mxCell>
        <mxCell id="yIqLHvParunaSloQBHTF-5" value="" style="rounded=1;whiteSpace=wrap;html=1;" parent="1" vertex="1">
          <mxGeometry x="416" y="445.5" width="10" height="10" as="geometry" />
        </mxCell>
        <mxCell id="yIqLHvParunaSloQBHTF-3" value="" style="shape=sumEllipse;perimeter=ellipsePerimeter;whiteSpace=wrap;html=1;backgroundOutline=1;strokeColor=#7A7A7A;" parent="1" vertex="1">
          <mxGeometry x="418" y="447.5" width="6" height="6" as="geometry" />
        </mxCell>
        <mxCell id="yIqLHvParunaSloQBHTF-9" value="" style="endArrow=none;html=1;rounded=0;entryX=0.29;entryY=1.099;entryDx=0;entryDy=0;entryPerimeter=0;exitX=1;exitY=0.5;exitDx=0;exitDy=0;" parent="1" source="yIqLHvParunaSloQBHTF-5" target="yIqLHvParunaSloQBHTF-11" edge="1">
          <mxGeometry width="50" height="50" relative="1" as="geometry">
            <mxPoint x="826" y="128.25" as="sourcePoint" />
            <mxPoint x="868.2436260623228" y="70" as="targetPoint" />
          </mxGeometry>
        </mxCell>
        <mxCell id="yIqLHvParunaSloQBHTF-11" value="&lt;font style=&quot;font-size: 10px;&quot;&gt;Кнопка &quot;Сбросить цену&quot;&lt;/font&gt;" style="rounded=1;whiteSpace=wrap;html=1;align=center;fontSize=10;" parent="1" vertex="1">
          <mxGeometry x="481" y="452" width="119" height="13.5" as="geometry" />
        </mxCell>
        <mxCell id="yIqLHvParunaSloQBHTF-12" value="" style="endArrow=none;html=1;rounded=0;entryX=0;entryY=0.75;entryDx=0;entryDy=0;exitX=0.645;exitY=1.106;exitDx=0;exitDy=0;exitPerimeter=0;" parent="1" source="aHM809MoDFuFs7wAWHGj-184" target="yIqLHvParunaSloQBHTF-13" edge="1">
          <mxGeometry width="50" height="50" relative="1" as="geometry">
            <mxPoint x="450" y="440" as="sourcePoint" />
            <mxPoint x="902.2849999999999" y="-8.414999999999964" as="targetPoint" />
          </mxGeometry>
        </mxCell>
        <mxCell id="yIqLHvParunaSloQBHTF-13" value="&lt;span style=&quot;font-size: 10px;&quot;&gt;Отображение установленного диапазона цен&lt;/span&gt;" style="rounded=1;whiteSpace=wrap;html=1;align=center;fontSize=10;" parent="1" vertex="1">
          <mxGeometry x="481" y="475.25" width="120" height="43.5" as="geometry" />
        </mxCell>
        <mxCell id="yIqLHvParunaSloQBHTF-14" value="&lt;font style=&quot;font-size: 6px;&quot;&gt;&amp;gt;&lt;/font&gt;" style="text;html=1;align=right;verticalAlign=middle;resizable=0;points=[];autosize=1;strokeColor=none;fillColor=none;fontColor=#7A7A7A;" parent="1" vertex="1">
          <mxGeometry x="400" y="411.75" width="30" height="30" as="geometry" />
        </mxCell>
        <mxCell id="9tvq5RSDOTkzpY2uj0eK-1" style="edgeStyle=orthogonalEdgeStyle;rounded=0;orthogonalLoop=1;jettySize=auto;html=1;entryX=0.529;entryY=-0.005;entryDx=0;entryDy=0;entryPerimeter=0;" parent="1" source="aHM809MoDFuFs7wAWHGj-155" target="aHM809MoDFuFs7wAWHGj-7" edge="1">
          <mxGeometry relative="1" as="geometry" />
        </mxCell>
        <mxCell id="9tvq5RSDOTkzpY2uj0eK-7" value="&lt;font style=&quot;font-size: 7px;&quot;&gt;Экран 3&lt;/font&gt;" style="rounded=1;whiteSpace=wrap;html=1;" parent="1" vertex="1">
          <mxGeometry x="760" y="18.25" width="40" height="11.75" as="geometry" />
        </mxCell>
        <mxCell id="9tvq5RSDOTkzpY2uj0eK-9" value="&lt;font style=&quot;font-size: 7px;&quot;&gt;Экран 2.1 *&lt;/font&gt;" style="rounded=1;whiteSpace=wrap;html=1;" parent="1" vertex="1">
          <mxGeometry x="360" y="340" width="40" height="11.75" as="geometry" />
        </mxCell>
        <mxCell id="9tvq5RSDOTkzpY2uj0eK-10" value="&lt;font style=&quot;font-size: 7px;&quot;&gt;Экран 1&lt;/font&gt;" style="rounded=1;whiteSpace=wrap;html=1;" parent="1" vertex="1">
          <mxGeometry x="160" y="18.250000000000007" width="40" height="11.75" as="geometry" />
        </mxCell>
        <mxCell id="9tvq5RSDOTkzpY2uj0eK-12" value="&lt;font style=&quot;font-size: 7px;&quot;&gt;Экран 2&lt;/font&gt;" style="rounded=1;whiteSpace=wrap;html=1;fontSize=7;" parent="1" vertex="1">
          <mxGeometry x="360" y="18.25" width="40" height="11.75" as="geometry" />
        </mxCell>
        <mxCell id="9tvq5RSDOTkzpY2uj0eK-13" value="" style="endArrow=none;html=1;rounded=0;entryX=0.5;entryY=1;entryDx=0;entryDy=0;exitX=0;exitY=0.5;exitDx=0;exitDy=0;" parent="1" source="aHM809MoDFuFs7wAWHGj-54" target="9tvq5RSDOTkzpY2uj0eK-10" edge="1">
          <mxGeometry width="50" height="50" relative="1" as="geometry">
            <mxPoint x="270" y="130" as="sourcePoint" />
            <mxPoint x="320" y="80" as="targetPoint" />
          </mxGeometry>
        </mxCell>
        <mxCell id="9tvq5RSDOTkzpY2uj0eK-14" value="" style="endArrow=none;html=1;rounded=0;entryX=0.5;entryY=1;entryDx=0;entryDy=0;exitX=0;exitY=0.5;exitDx=0;exitDy=0;" parent="1" source="aHM809MoDFuFs7wAWHGj-7" target="9tvq5RSDOTkzpY2uj0eK-12" edge="1">
          <mxGeometry width="50" height="50" relative="1" as="geometry">
            <mxPoint x="190" y="50" as="sourcePoint" />
            <mxPoint x="190" y="40" as="targetPoint" />
          </mxGeometry>
        </mxCell>
        <mxCell id="9tvq5RSDOTkzpY2uj0eK-16" value="" style="endArrow=none;html=1;rounded=0;entryX=0.5;entryY=1;entryDx=0;entryDy=0;exitX=0;exitY=0.5;exitDx=0;exitDy=0;" parent="1" source="aHM809MoDFuFs7wAWHGj-10" target="9tvq5RSDOTkzpY2uj0eK-9" edge="1">
          <mxGeometry width="50" height="50" relative="1" as="geometry">
            <mxPoint x="850" y="130" as="sourcePoint" />
            <mxPoint x="900" y="80" as="targetPoint" />
          </mxGeometry>
        </mxCell>
        <mxCell id="9tvq5RSDOTkzpY2uj0eK-17" value="" style="endArrow=none;html=1;rounded=0;entryX=0.5;entryY=1;entryDx=0;entryDy=0;exitX=0;exitY=0.5;exitDx=0;exitDy=0;" parent="1" source="aHM809MoDFuFs7wAWHGj-11" target="9tvq5RSDOTkzpY2uj0eK-7" edge="1">
          <mxGeometry width="50" height="50" relative="1" as="geometry">
            <mxPoint x="850" y="130" as="sourcePoint" />
            <mxPoint x="900" y="80" as="targetPoint" />
          </mxGeometry>
        </mxCell>
        <mxCell id="9tvq5RSDOTkzpY2uj0eK-19" value="&lt;font size=&quot;1&quot;&gt;* &quot;Экран 2.1&quot; = &quot;Экран 2&quot;, с учетом установленного и сохраненного диапазона цен, а так же добавления кнопки &quot;Сбросить цену&quot;&lt;/font&gt;" style="rounded=1;whiteSpace=wrap;html=1;" parent="1" vertex="1">
          <mxGeometry x="120" y="360" width="160" height="131" as="geometry" />
        </mxCell>
        <mxCell id="9tvq5RSDOTkzpY2uj0eK-22" value="" style="endArrow=none;html=1;rounded=0;entryX=0;entryY=0.25;entryDx=0;entryDy=0;exitX=0.91;exitY=0.012;exitDx=0;exitDy=0;exitPerimeter=0;" parent="1" source="9tvq5RSDOTkzpY2uj0eK-19" target="9tvq5RSDOTkzpY2uj0eK-9" edge="1">
          <mxGeometry width="50" height="50" relative="1" as="geometry">
            <mxPoint x="360" y="380" as="sourcePoint" />
            <mxPoint x="410" y="330" as="targetPoint" />
          </mxGeometry>
        </mxCell>
        <mxCell id="9tvq5RSDOTkzpY2uj0eK-32" style="edgeStyle=orthogonalEdgeStyle;rounded=0;orthogonalLoop=1;jettySize=auto;html=1;exitX=1;exitY=0.75;exitDx=0;exitDy=0;entryX=0.024;entryY=0.16;entryDx=0;entryDy=0;entryPerimeter=0;" parent="1" edge="1" source="aHM809MoDFuFs7wAWHGj-154">
          <mxGeometry relative="1" as="geometry">
            <mxPoint x="629.2" y="160.99" as="sourcePoint" />
            <mxPoint x="420.00000000000006" y="360" as="targetPoint" />
            <Array as="points">
              <mxPoint x="630" y="200" />
              <mxPoint x="679" y="200" />
              <mxPoint x="679" y="314" />
              <mxPoint x="420" y="314" />
            </Array>
          </mxGeometry>
        </mxCell>
        <mxCell id="9tvq5RSDOTkzpY2uj0eK-65" value="" style="rounded=1;whiteSpace=wrap;html=1;" parent="1" vertex="1">
          <mxGeometry x="400" y="61.75" width="30" height="10" as="geometry" />
        </mxCell>
        <mxCell id="aHM809MoDFuFs7wAWHGj-109" value="&lt;div style=&quot;&quot;&gt;&lt;span style=&quot;font-size: 6px;&quot;&gt;&lt;span style=&quot;font-weight: normal;&quot;&gt;Сбросить&lt;/span&gt;&lt;/span&gt;&lt;/div&gt;" style="text;html=1;align=right;verticalAlign=middle;resizable=0;points=[];autosize=1;strokeColor=none;fillColor=none;fontStyle=1" parent="1" vertex="1">
          <mxGeometry x="380" y="48.5" width="50" height="30" as="geometry" />
        </mxCell>
        <mxCell id="9tvq5RSDOTkzpY2uj0eK-66" value="" style="rounded=1;whiteSpace=wrap;html=1;" parent="1" vertex="1">
          <mxGeometry x="330" y="61.75" width="10" height="10" as="geometry" />
        </mxCell>
        <mxCell id="aHM809MoDFuFs7wAWHGj-110" value="" style="verticalLabelPosition=bottom;verticalAlign=top;html=1;shape=mxgraph.basic.x;fillColor=#000000;" parent="1" vertex="1">
          <mxGeometry x="332" y="63.75" width="6" height="6" as="geometry" />
        </mxCell>
        <mxCell id="9tvq5RSDOTkzpY2uj0eK-67" value="" style="rounded=1;whiteSpace=wrap;html=1;" parent="1" vertex="1">
          <mxGeometry x="400" y="382" width="30" height="10" as="geometry" />
        </mxCell>
        <mxCell id="aHM809MoDFuFs7wAWHGj-178" value="&lt;div style=&quot;&quot;&gt;&lt;span style=&quot;font-size: 6px;&quot;&gt;&lt;span style=&quot;font-weight: normal;&quot;&gt;Сбросить&lt;/span&gt;&lt;/span&gt;&lt;/div&gt;" style="text;html=1;align=right;verticalAlign=middle;resizable=0;points=[];autosize=1;strokeColor=none;fillColor=none;fontStyle=1" parent="1" vertex="1">
          <mxGeometry x="380" y="370" width="50" height="30" as="geometry" />
        </mxCell>
        <mxCell id="9tvq5RSDOTkzpY2uj0eK-68" value="" style="rounded=1;whiteSpace=wrap;html=1;" parent="1" vertex="1">
          <mxGeometry x="330" y="382" width="10" height="10" as="geometry" />
        </mxCell>
        <mxCell id="aHM809MoDFuFs7wAWHGj-179" value="" style="verticalLabelPosition=bottom;verticalAlign=top;html=1;shape=mxgraph.basic.x;fillColor=#000000;" parent="1" vertex="1">
          <mxGeometry x="332" y="384" width="6" height="6" as="geometry" />
        </mxCell>
        <mxCell id="9tvq5RSDOTkzpY2uj0eK-71" value="&lt;font style=&quot;font-size: 10px;&quot;&gt;Кнопка &quot;Сбросить&quot; - сбрасывает все фильтры, в т.ч. и цену&lt;/font&gt;" style="rounded=1;whiteSpace=wrap;html=1;" parent="1" vertex="1">
          <mxGeometry x="400" y="-50" width="110" height="50" as="geometry" />
        </mxCell>
        <mxCell id="9tvq5RSDOTkzpY2uj0eK-72" value="" style="endArrow=none;html=1;rounded=0;entryX=0.5;entryY=1;entryDx=0;entryDy=0;exitX=0.5;exitY=0;exitDx=0;exitDy=0;" parent="1" source="9tvq5RSDOTkzpY2uj0eK-65" target="9tvq5RSDOTkzpY2uj0eK-71" edge="1">
          <mxGeometry width="50" height="50" relative="1" as="geometry">
            <mxPoint x="430" y="130" as="sourcePoint" />
            <mxPoint x="480" y="80" as="targetPoint" />
          </mxGeometry>
        </mxCell>
        <mxCell id="9tvq5RSDOTkzpY2uj0eK-73" value="&lt;font style=&quot;font-size: 10px;&quot;&gt;Кнопка для удаления введенных значений посимвольно&lt;/font&gt;" style="rounded=1;whiteSpace=wrap;html=1;" parent="1" vertex="1">
          <mxGeometry x="630" y="340" width="120" height="60" as="geometry" />
        </mxCell>
        <mxCell id="9tvq5RSDOTkzpY2uj0eK-75" value="" style="rounded=1;whiteSpace=wrap;html=1;align=center;arcSize=32;" parent="1" vertex="1">
          <mxGeometry x="605" y="258.75" width="25" height="10" as="geometry" />
        </mxCell>
        <mxCell id="aHM809MoDFuFs7wAWHGj-170" value="" style="verticalLabelPosition=bottom;verticalAlign=top;html=1;shape=offPageConnector;rounded=0;size=0.5;direction=south;" parent="1" vertex="1">
          <mxGeometry x="610" y="260.25" width="10" height="7" as="geometry" />
        </mxCell>
        <mxCell id="aHM809MoDFuFs7wAWHGj-171" value="&lt;font style=&quot;font-size: 8px;&quot;&gt;x&lt;/font&gt;" style="text;html=1;align=center;verticalAlign=middle;resizable=0;points=[];autosize=1;strokeColor=none;fillColor=none;" parent="1" vertex="1">
          <mxGeometry x="601" y="247" width="30" height="30" as="geometry" />
        </mxCell>
        <mxCell id="9tvq5RSDOTkzpY2uj0eK-76" value="" style="endArrow=none;html=1;rounded=0;exitX=0.5;exitY=0;exitDx=0;exitDy=0;entryX=0.611;entryY=0.953;entryDx=0;entryDy=0;entryPerimeter=0;" parent="1" source="9tvq5RSDOTkzpY2uj0eK-73" target="9tvq5RSDOTkzpY2uj0eK-75" edge="1">
          <mxGeometry width="50" height="50" relative="1" as="geometry">
            <mxPoint x="630" y="300" as="sourcePoint" />
            <mxPoint x="680" y="250" as="targetPoint" />
          </mxGeometry>
        </mxCell>
        <mxCell id="9tvq5RSDOTkzpY2uj0eK-85" value="&lt;font style=&quot;font-size: 10px;&quot;&gt;Кнопки для ввода значений в соответствии с цифровым номиналом&lt;/font&gt;" style="rounded=1;whiteSpace=wrap;html=1;" parent="1" vertex="1">
          <mxGeometry x="480" y="351.75" width="120" height="50" as="geometry" />
        </mxCell>
        <mxCell id="9tvq5RSDOTkzpY2uj0eK-86" value="" style="endArrow=none;html=1;rounded=0;exitX=0.5;exitY=0;exitDx=0;exitDy=0;" parent="1" source="9tvq5RSDOTkzpY2uj0eK-85" edge="1">
          <mxGeometry width="50" height="50" relative="1" as="geometry">
            <mxPoint x="530" y="360" as="sourcePoint" />
            <mxPoint x="560" y="260" as="targetPoint" />
          </mxGeometry>
        </mxCell>
        <mxCell id="oT0RSAguvayIHpw8Xgz2-2" value="&lt;font style=&quot;font-size: 6px;&quot;&gt;за кв.м&lt;/font&gt;" style="rounded=1;whiteSpace=wrap;html=1;align=center;arcSize=32;" vertex="1" parent="1">
          <mxGeometry x="600" y="133.5" width="30" height="13.5" as="geometry" />
        </mxCell>
        <mxCell id="oT0RSAguvayIHpw8Xgz2-3" value="&lt;font style=&quot;font-size: 6px;&quot;&gt;за все&lt;/font&gt;" style="rounded=1;whiteSpace=wrap;html=1;align=center;arcSize=32;" vertex="1" parent="1">
          <mxGeometry x="530" y="133.5" width="30" height="13.5" as="geometry" />
        </mxCell>
        <mxCell id="oT0RSAguvayIHpw8Xgz2-20" value="&lt;font style=&quot;font-size: 6px;&quot;&gt;Тип недвижимости&lt;/font&gt;" style="rounded=1;whiteSpace=wrap;html=1;align=left;fillColor=#E6E6E6;" vertex="1" parent="1">
          <mxGeometry x="530" y="100" width="100" height="13.5" as="geometry" />
        </mxCell>
        <mxCell id="oT0RSAguvayIHpw8Xgz2-21" value="&lt;font style=&quot;font-size: 6px;&quot;&gt;Купить&lt;/font&gt;" style="rounded=1;whiteSpace=wrap;html=1;align=center;arcSize=32;fillColor=#E6E6E6;" vertex="1" parent="1">
          <mxGeometry x="530" y="80" width="50" height="13.5" as="geometry" />
        </mxCell>
        <mxCell id="oT0RSAguvayIHpw8Xgz2-22" value="&lt;font style=&quot;font-size: 6px;&quot;&gt;Снять&lt;/font&gt;" style="rounded=1;whiteSpace=wrap;html=1;align=center;arcSize=32;fillColor=#E6E6E6;" vertex="1" parent="1">
          <mxGeometry x="580" y="80" width="50" height="13.5" as="geometry" />
        </mxCell>
        <mxCell id="oT0RSAguvayIHpw8Xgz2-25" value="" style="rounded=1;whiteSpace=wrap;html=1;fillColor=#E6E6E6;" vertex="1" parent="1">
          <mxGeometry x="530" y="61.75" width="10" height="10" as="geometry" />
        </mxCell>
        <mxCell id="oT0RSAguvayIHpw8Xgz2-24" value="" style="verticalLabelPosition=bottom;verticalAlign=top;html=1;shape=mxgraph.basic.x;fillColor=#000000;" vertex="1" parent="1">
          <mxGeometry x="532" y="63.75" width="6" height="6" as="geometry" />
        </mxCell>
        <mxCell id="oT0RSAguvayIHpw8Xgz2-26" value="&lt;div style=&quot;&quot;&gt;&lt;font style=&quot;font-size: 6px;&quot;&gt;&lt;b&gt;Фильтры&lt;/b&gt;&lt;/font&gt;&lt;/div&gt;" style="text;html=1;align=center;verticalAlign=middle;resizable=0;points=[];autosize=1;strokeColor=none;fillColor=none;" vertex="1" parent="1">
          <mxGeometry x="555" y="50" width="50" height="30" as="geometry" />
        </mxCell>
        <mxCell id="oT0RSAguvayIHpw8Xgz2-29" value="" style="rounded=1;whiteSpace=wrap;html=1;fillColor=#E6E6E6;" vertex="1" parent="1">
          <mxGeometry x="601" y="61.75" width="30" height="10" as="geometry" />
        </mxCell>
        <mxCell id="oT0RSAguvayIHpw8Xgz2-27" value="&lt;div style=&quot;&quot;&gt;&lt;span style=&quot;font-size: 6px;&quot;&gt;&lt;span style=&quot;font-weight: normal;&quot;&gt;Сбросить&lt;/span&gt;&lt;/span&gt;&lt;/div&gt;" style="text;html=1;align=right;verticalAlign=middle;resizable=0;points=[];autosize=1;strokeColor=none;fillColor=none;fontStyle=1" vertex="1" parent="1">
          <mxGeometry x="581" y="48.5" width="50" height="30" as="geometry" />
        </mxCell>
        <mxCell id="C7LZBwxP7M1bNRioeBZp-12" value="" style="endArrow=none;html=1;rounded=0;exitX=0.393;exitY=0.191;exitDx=0;exitDy=0;exitPerimeter=0;entryX=0.5;entryY=1;entryDx=0;entryDy=0;" parent="1" source="aHM809MoDFuFs7wAWHGj-150" target="aHM809MoDFuFs7wAWHGj-151" edge="1">
          <mxGeometry width="50" height="50" relative="1" as="geometry">
            <mxPoint x="550" y="260" as="sourcePoint" />
            <mxPoint x="600" y="210" as="targetPoint" />
            <Array as="points">
              <mxPoint x="630" y="20" />
            </Array>
          </mxGeometry>
        </mxCell>
        <mxCell id="oT0RSAguvayIHpw8Xgz2-12" value="" style="rounded=1;whiteSpace=wrap;html=1;fillColor=#7A7A7A;strokeColor=#7A7A7A;" vertex="1" parent="1">
          <mxGeometry x="564" y="123.5" width="32" height="2" as="geometry" />
        </mxCell>
        <mxCell id="oT0RSAguvayIHpw8Xgz2-16" value="&lt;font style=&quot;font-size: 6px;&quot;&gt;&amp;gt;&lt;/font&gt;" style="text;html=1;align=right;verticalAlign=middle;resizable=0;points=[];autosize=1;strokeColor=none;fillColor=none;fontColor=#7A7A7A;" vertex="1" parent="1">
          <mxGeometry x="600" y="92" width="30" height="30" as="geometry" />
        </mxCell>
        <mxCell id="oT0RSAguvayIHpw8Xgz2-30" value="&lt;span style=&quot;font-size: 10px;&quot;&gt;Всплывающее &quot;окно&quot; для ввода данных.&lt;br&gt;Не является отдельным экраном&lt;/span&gt;" style="rounded=1;whiteSpace=wrap;html=1;" vertex="1" parent="1">
          <mxGeometry x="525" y="-70" width="160" height="50" as="geometry" />
        </mxCell>
        <mxCell id="oT0RSAguvayIHpw8Xgz2-31" value="" style="endArrow=none;html=1;rounded=0;entryX=0.464;entryY=1.017;entryDx=0;entryDy=0;entryPerimeter=0;exitX=0;exitY=0.5;exitDx=0;exitDy=0;" edge="1" parent="1" source="aHM809MoDFuFs7wAWHGj-8" target="oT0RSAguvayIHpw8Xgz2-30">
          <mxGeometry width="50" height="50" relative="1" as="geometry">
            <mxPoint x="560" y="30" as="sourcePoint" />
            <mxPoint x="610" y="-20" as="targetPoint" />
          </mxGeometry>
        </mxCell>
      </root>
    </mxGraphModel>
  </diagram>
</mxfile>
